<mxfile host="app.diagrams.net" modified="2023-03-30T01:08:48.066Z" agent="5.0 (Windows NT 10.0; Win64; x64) AppleWebKit/537.36 (KHTML, like Gecko) Chrome/111.0.0.0 Safari/537.36" etag="MF5hlTmDntl_xiPA7nXm" version="20.5.1" type="github">
  <diagram id="exjW6TpwlfhhMM9tGB0L" name="第 1 页">
    <mxGraphModel dx="1422" dy="794" grid="0" gridSize="10" guides="1" tooltips="1" connect="1" arrows="1" fold="1" page="1" pageScale="1" pageWidth="2339" pageHeight="3300" math="0" shadow="0">
      <root>
        <mxCell id="0" />
        <mxCell id="1" parent="0" />
        <mxCell id="dhKK24aEWWIvLG82vy6N-1" value="采集端" style="rounded=0;whiteSpace=wrap;html=1;" vertex="1" parent="1">
          <mxGeometry x="181" y="130" width="120" height="60" as="geometry" />
        </mxCell>
        <mxCell id="dhKK24aEWWIvLG82vy6N-2" value="服务器" style="rounded=0;whiteSpace=wrap;html=1;" vertex="1" parent="1">
          <mxGeometry x="529" y="130" width="120" height="60" as="geometry" />
        </mxCell>
        <mxCell id="dhKK24aEWWIvLG82vy6N-3" value="展示端" style="rounded=0;whiteSpace=wrap;html=1;" vertex="1" parent="1">
          <mxGeometry x="813" y="130" width="120" height="60" as="geometry" />
        </mxCell>
        <mxCell id="dhKK24aEWWIvLG82vy6N-4" value="特点" style="rounded=0;whiteSpace=wrap;html=1;" vertex="1" parent="1">
          <mxGeometry x="1122" y="130" width="120" height="60" as="geometry" />
        </mxCell>
        <mxCell id="dhKK24aEWWIvLG82vy6N-5" value="" style="rounded=0;whiteSpace=wrap;html=1;" vertex="1" parent="1">
          <mxGeometry y="284" width="1376" height="196" as="geometry" />
        </mxCell>
        <mxCell id="dhKK24aEWWIvLG82vy6N-6" value="" style="rounded=0;whiteSpace=wrap;html=1;" vertex="1" parent="1">
          <mxGeometry y="495" width="1376" height="196" as="geometry" />
        </mxCell>
        <mxCell id="dhKK24aEWWIvLG82vy6N-7" value="口腔" style="rounded=0;whiteSpace=wrap;html=1;" vertex="1" parent="1">
          <mxGeometry x="14" y="299" width="64" height="168" as="geometry" />
        </mxCell>
        <mxCell id="dhKK24aEWWIvLG82vy6N-8" value="乳腺" style="rounded=0;whiteSpace=wrap;html=1;" vertex="1" parent="1">
          <mxGeometry x="14" y="508" width="64" height="173" as="geometry" />
        </mxCell>
        <mxCell id="dhKK24aEWWIvLG82vy6N-10" value="画面上传" style="rounded=1;whiteSpace=wrap;html=1;" vertex="1" parent="1">
          <mxGeometry x="355.13" y="208" width="120" height="60" as="geometry" />
        </mxCell>
        <mxCell id="dhKK24aEWWIvLG82vy6N-11" value="画面获取" style="rounded=1;whiteSpace=wrap;html=1;" vertex="1" parent="1">
          <mxGeometry x="814" y="211" width="120" height="60" as="geometry" />
        </mxCell>
        <mxCell id="dhKK24aEWWIvLG82vy6N-12" value="" style="endArrow=none;html=1;rounded=0;" edge="1" parent="1">
          <mxGeometry width="50" height="50" relative="1" as="geometry">
            <mxPoint x="4" y="200" as="sourcePoint" />
            <mxPoint x="1365" y="200" as="targetPoint" />
          </mxGeometry>
        </mxCell>
        <mxCell id="dhKK24aEWWIvLG82vy6N-13" value="" style="triangle;whiteSpace=wrap;html=1;" vertex="1" parent="1">
          <mxGeometry x="405" y="143" width="20.25" height="27" as="geometry" />
        </mxCell>
        <mxCell id="dhKK24aEWWIvLG82vy6N-15" value="" style="triangle;whiteSpace=wrap;html=1;" vertex="1" parent="1">
          <mxGeometry x="721" y="143" width="20.25" height="27" as="geometry" />
        </mxCell>
        <mxCell id="dhKK24aEWWIvLG82vy6N-16" value="" style="triangle;whiteSpace=wrap;html=1;" vertex="1" parent="1">
          <mxGeometry x="1017" y="146.5" width="20.25" height="27" as="geometry" />
        </mxCell>
      </root>
    </mxGraphModel>
  </diagram>
</mxfile>
